<svg width="32" height="32" viewBox="0 0 32 32" fill="none" xmlns="http://www.w3.org/2000/svg">
<path d="M14.6667 8.0013C16.1394 8.0013 17.3333 6.80739 17.3333 5.33464C17.3333 3.86188 16.1394 2.66797 14.6667 2.66797C13.1939 2.66797 12 3.86188 12 5.33464C12 6.80739 13.1939 8.0013 14.6667 8.0013Z" stroke="#F9D783" stroke-width="2" stroke-linecap="round" stroke-linejoin="round"/>
<path d="M24.0007 13.3333C25.4734 13.3333 26.6673 12.1394 26.6673 10.6667C26.6673 9.19391 25.4734 8 24.0007 8C22.5279 8 21.334 9.19391 21.334 10.6667C21.334 12.1394 22.5279 13.3333 24.0007 13.3333Z" stroke="#F9D783" stroke-width="2" stroke-linecap="round" stroke-linejoin="round"/>
<path d="M26.6667 24.0013C28.1394 24.0013 29.3333 22.8074 29.3333 21.3346C29.3333 19.8619 28.1394 18.668 26.6667 18.668C25.1939 18.668 24 19.8619 24 21.3346C24 22.8074 25.1939 24.0013 26.6667 24.0013Z" stroke="#F9D783" stroke-width="2" stroke-linecap="round" stroke-linejoin="round"/>
<path d="M12.001 13.332C12.8764 13.332 13.7434 13.5045 14.5522 13.8395C15.361 14.1745 16.096 14.6656 16.715 15.2847C17.3341 15.9037 17.8251 16.6386 18.1602 17.4475C18.4952 18.2563 18.6676 19.1232 18.6676 19.9987V24.6654C18.6673 25.7806 18.2675 26.8589 17.5407 27.7049C16.814 28.5508 15.8082 29.1085 14.7058 29.277C13.6033 29.4454 12.4769 29.2134 11.5307 28.6231C10.5845 28.0327 9.88099 27.123 9.54763 26.0587C8.97875 24.2231 7.77875 23.0209 5.94763 22.452C4.88388 22.1189 3.97452 21.4159 3.38412 20.4704C2.79371 19.5249 2.56125 18.3992 2.72882 17.2972C2.89638 16.1952 3.45289 15.1895 4.29764 14.4622C5.1424 13.7349 6.21959 13.334 7.3343 13.332H12.001Z" stroke="#F9D783" stroke-width="2" stroke-linecap="round" stroke-linejoin="round"/>
</svg>
